<svg xmlns="http://www.w3.org/2000/svg" xmlns:xlink="http://www.w3.org/1999/xlink" aria-hidden="true" role="img" class="iconify iconify--ph" width="1em" height="1em" preserveAspectRatio="xMidYMid meet" viewBox="0 0 256 256"><path d="M195.882 60.118a96 96 0 1 0 0 135.764a96 96 0 0 0 0-135.764zm-31.205 74.578L140.54 163.11l-36.677-6.695v-.001l-12.54-35.11l24.137-28.416l36.677 6.695l12.54 35.112z" opacity=".2" fill="currentColor"></path><path d="M232 128A104 104 0 0 0 54.46 54.46A104 104 0 0 0 127.97 232l.03.002c.022 0 .043-.002.065-.003A103.999 103.999 0 0 0 232 128zm-122.157 21.375l-9.432-26.412l18.156-21.374l27.59 5.036l9.432 26.412l-18.156 21.374zM49.175 88.92l51.217 9.35l-53.741 63.266a88.433 88.433 0 0 1 2.524-72.616zm160.174 5.544a88.433 88.433 0 0 1-2.524 72.616l-51.217-9.35zM201.27 79.26l-33.72 39.696l-27.92-78.176a87.986 87.986 0 0 1 61.64 38.48zm-78.838-39.067l17.511 49.033L58.296 74.32a88.35 88.35 0 0 1 7.478-8.545a87.334 87.334 0 0 1 56.658-25.582zM54.73 176.74l33.72-39.696l27.92 78.176a87.986 87.986 0 0 1-61.64-38.48zm78.838 39.067l-17.511-49.033l23.082 4.214l.046.008l58.519 10.684a88.35 88.35 0 0 1-7.478 8.545a87.334 87.334 0 0 1-56.658 25.582z" fill="currentColor"></path></svg>